<?xml version="1.0" encoding="UTF-8" standalone="no"?>
<svg width="116px" height="101px" viewBox="0 0 116 101" version="1.1" xmlns="http://www.w3.org/2000/svg" xmlns:xlink="http://www.w3.org/1999/xlink" xmlns:sketch="http://www.bohemiancoding.com/sketch/ns">
    <!-- Generator: Sketch 3.3.2 (12043) - http://www.bohemiancoding.com/sketch -->
    <title>charts</title>
    <desc>Created with Sketch.</desc>
    <defs></defs>
    <g id="Page-1" stroke="none" stroke-width="1" fill="none" fill-rule="evenodd" sketch:type="MSPage">
        <g id="charts" sketch:type="MSLayerGroup" fill="#000000">
            <path d="M57.9840916,0.062495 C57.3241057,0.0625579198 56.7402052,0.646458445 56.7401423,1.30644437 L56.7401423,23.9784248 C61.144776,21.6313315 65.9436187,20.0533103 70.9051141,19.4440287 L70.9051141,1.30644437 C70.9050499,0.646475138 70.3211494,0.0625579198 69.6611648,0.062495 L57.9840916,0.062495 L57.9840916,0.062495 Z M39.0840867,15.7924354 C38.4241007,15.7924983 37.8000728,16.416543 37.8000099,17.0765122 L37.8000099,44.6440353 C38.133319,43.8692337 38.5115836,43.1077197 38.8834497,42.3567736 C41.8501768,36.1879661 46.453036,30.8732301 52.0051092,26.907725 L52.0051092,17.0765122 C52.005045,16.416543 51.381017,15.7924983 50.7210324,15.7924354 L39.0840867,15.7924354 L39.0840867,15.7924354 Z M75.2388732,21.3701439 C67.7744695,21.538435 60.3938119,23.7924584 54.2121161,28.0714195 C54.2091627,28.0734741 54.1749421,28.069365 54.1719887,28.0714195 C45.1745912,34.1369282 38.8165377,43.9797901 37.2382263,54.7561399 C37.1888407,55.0946649 37.3068602,55.4508986 37.5191181,55.7191975 C37.7313567,55.9874963 38.0611269,56.1708676 38.4019209,56.2007263 C50.5585569,57.2610167 62.6794339,58.3156996 74.8375992,59.3707908 C74.8785228,59.3743862 74.9570312,59.3710476 74.9981088,59.3707908 C75.3968545,59.3666818 75.7723224,59.175606 76.0012938,58.8491346 L96.9879235,28.8739675 C97.1831597,28.5940247 97.257432,28.2050534 97.1885605,27.8707825 C97.1196955,27.5365117 96.9167715,27.2481876 96.6267769,27.0682346 C90.2520112,23.1058099 82.703277,21.2018528 75.2388732,21.3701439 L75.2388732,21.3701439 Z M99.8770962,29.7968977 C99.536744,29.8456413 99.2314701,30.0367825 99.0344209,30.3185539 L78.6497021,59.4109182 C78.4598231,59.6814847 78.3916168,60.0083388 78.4490651,60.3338484 C78.5065019,60.6593747 78.6996964,60.9872894 78.9707213,61.1765238 L108.063086,81.5612425 C108.269682,81.705303 108.533529,81.7594834 108.785379,81.7618795 C109.217685,81.7676578 109.64084,81.5273274 109.868819,81.1599685 L109.949073,81.0797137 L109.949073,81.0395863 C117.891711,68.093211 117.398869,50.5773047 108.504487,38.2236515 C106.36878,35.1676014 103.767475,32.373774 100.840154,30.0376621 C100.571935,29.8225407 100.217465,29.7481477 99.8770962,29.7968977 L99.8770962,29.7968977 Z M1.24394937,31.5625033 C0.583964215,31.5625662 6.30481694e-05,32.1464667 0,32.8064526 L0,77.58863 C6.30481694e-05,78.2486146 0.583964215,78.8325151 1.24394937,78.8325793 L12.9210225,78.8325793 C13.5810071,78.8325151 14.1649089,78.2486146 14.1649719,77.58863 L14.1649719,32.8064526 C14.1649089,32.1464667 13.5810071,31.5625662 12.9210225,31.5625033 L1.24394937,31.5625033 L1.24394937,31.5625033 Z M20.1840817,39.4274735 C19.5240958,39.4275364 18.9000679,40.0515643 18.900005,40.7115502 L18.900005,77.58863 C18.9000679,78.2486146 19.5240958,78.8325151 20.1840817,78.8325793 L31.8210274,78.8325793 C32.4810121,78.8325151 33.1050413,78.2486146 33.1051042,77.58863 L33.1051042,40.7115502 C33.1050413,40.0515643 32.4810121,39.4275364 31.8210274,39.4274735 L20.1840817,39.4274735 L20.1840817,39.4274735 Z M38.1611565,58.688625 C37.8208672,58.6591426 37.493574,58.7827735 37.2382263,59.0096442 C36.9828954,59.2365033 36.8075868,59.591182 36.7968249,59.9325744 C36.3217871,74.8113376 45.0527079,89.3796572 58.3853656,95.9268513 C58.3905019,95.9295479 58.4203182,95.9242832 58.425493,95.9268513 C63.1326334,98.307287 68.2884353,99.72085 73.5535225,100.059973 C73.594446,100.063569 73.632827,100.06023 73.6739047,100.059973 C74.3189696,100.03722 74.9181853,99.4614986 74.917854,98.8160241 C74.9178386,86.9068733 74.917854,74.9716635 74.917854,63.0625115 C74.917854,62.4387661 74.3755897,61.8722122 73.7541595,61.8185621 L38.1611565,58.688625 L38.1611565,58.688625 Z M78.4089377,64.3867157 C78.296748,64.4091999 78.189638,64.4540912 78.0879186,64.5070979 C77.6810588,64.7191311 77.4050915,65.1718567 77.4057528,65.630665 C77.4057528,76.687967 77.405722,87.75869 77.4057528,98.8160241 C77.4057528,99.157826 77.5589906,99.5037923 77.8070268,99.7389542 C78.0550475,99.9741342 78.4288024,100.078629 78.7700843,100.059973 L78.9305939,100.059973 L79.0108487,100.059973 C79.0520804,100.05702 79.0904872,100.066907 79.1312309,100.059973 C89.8602008,99.3045048 100.170169,93.8434971 106.859264,85.4536002 C107.074417,85.1853642 107.188905,84.8309257 107.140155,84.4905426 C107.091412,84.1501582 106.900301,83.8449165 106.618499,83.6478672 L79.4121227,64.5873527 C79.1303642,64.3898167 78.7454878,64.3192798 78.4089377,64.3867157 L78.4089377,64.3867157 Z" id="Shape" sketch:type="MSShapeGroup"></path>
        </g>
    </g>
</svg>