<?xml version="1.0" encoding="UTF-8" standalone="no"?>
<svg width="100px" height="100px" viewBox="0 0 100 100" version="1.1" xmlns="http://www.w3.org/2000/svg" xmlns:xlink="http://www.w3.org/1999/xlink" xmlns:sketch="http://www.bohemiancoding.com/sketch/ns">
    <!-- Generator: Sketch 3.3.2 (12043) - http://www.bohemiancoding.com/sketch -->
    <title>bool</title>
    <desc>Created with Sketch.</desc>
    <defs></defs>
    <g id="Page-1" stroke="none" stroke-width="1" fill="none" fill-rule="evenodd" sketch:type="MSPage">
        <g id="bool" sketch:type="MSLayerGroup" fill="#9B9B9B">
            <path d="M85.709593,45.5083333 L59.3319466,45.5083333 C51.7468502,45.5083333 45.5445545,51.7746054 45.5445545,59.4296927 L45.5445545,86.0711156 C45.5445545,93.7281563 51.7468502,99.992475 59.3319466,99.992475 L85.709593,99.992475 C93.2927554,99.992475 99.4950512,93.7281563 99.4950512,86.0711156 L99.4950512,59.4296927 C99.4950512,51.7746054 93.2908214,45.5083333 85.709593,45.5083333 L85.709593,45.5083333 Z M86.3187989,76.327922 L75.9526294,76.327922 L75.9526294,86.6903202 L69.0599004,86.6903202 L69.0599004,76.327922 L58.7208068,76.327922 L58.7208068,69.1748397 L69.0599004,69.1748397 L69.0599004,58.8163482 L75.9526294,58.8163482 L75.9526294,69.1748397 L86.3187989,69.1748397 L86.3187989,76.327922 L86.3187989,76.327922 Z" id="Shape" sketch:type="MSShapeGroup"></path>
            <path d="M40.1650386,0.00166666667 L13.7873921,0.00166666667 C6.20229578,0.00166666667 0,6.26793873 0,13.9249794 L0,40.564449 C0,48.2214896 6.20229578,54.4877617 13.7873921,54.4877617 L40.1650386,54.4877617 C47.7482009,54.4877617 53.9504967,48.2214896 53.9504967,40.564449 L53.9504967,13.9249794 C53.9504967,6.26793873 47.7462669,0.00166666667 40.1650386,0.00166666667 L40.1650386,0.00166666667 Z M38.7106805,31.0654212 L15.2398162,31.0654212 L15.2398162,23.4240072 L38.7106805,23.4240072 L38.7106805,31.0654212 L38.7106805,31.0654212 Z" id="Shape" sketch:type="MSShapeGroup"></path>
        </g>
    </g>
</svg>