<?xml version="1.0" encoding="UTF-8" standalone="no"?>
<svg width="100px" height="100px" viewBox="0 0 100 100" version="1.1" xmlns="http://www.w3.org/2000/svg" xmlns:xlink="http://www.w3.org/1999/xlink" xmlns:sketch="http://www.bohemiancoding.com/sketch/ns">
    <!-- Generator: Sketch 3.3.2 (12043) - http://www.bohemiancoding.com/sketch -->
    <title>geo</title>
    <desc>Created with Sketch.</desc>
    <defs></defs>
    <g id="Page-1" stroke="none" stroke-width="1" fill="none" fill-rule="evenodd" sketch:type="MSPage">
        <g id="geo" sketch:type="MSLayerGroup" fill="#9B9B9B">
            <path d="M50.0006381,0 C22.3881168,0 0,22.3848598 0,49.9993619 C0,77.6164163 22.3881168,100 50.0006381,100 C77.6131593,100 100,77.6164163 100,49.9993619 C99.9987239,22.3835837 77.6118832,0 50.0006381,0 L50.0006381,0 Z M71.1470975,65.373081 C71.1470975,66.1591863 70.8714572,67.3855617 70.5345635,68.0938222 L66.8848819,75.7953574 C66.5467121,76.504894 65.8014624,77.5232577 65.2272118,78.0630671 L53.3402243,89.1604242 C52.768526,89.6964051 52.9420773,90.1379513 53.7256103,90.1379513 L55.0872223,90.1379513 C55.8707553,90.1379513 56.5151921,90.7007312 56.5151921,91.3885734 C56.5151921,92.0789679 55.8707553,92.643024 55.0872223,92.643024 L49.2451795,92.643024 C48.4590942,92.643024 47.8172097,91.9985707 47.8172097,91.2111892 L47.8172097,76.012302 C47.8172097,75.2223683 48.4590942,74.5830196 49.2451795,74.5830196 L50.8683945,74.5830196 C51.6544798,74.5830196 52.2976405,73.9398425 52.2976405,73.1550133 L52.2976405,71.5317569 C52.2976405,70.7443754 51.6544798,70.1011983 50.8683945,70.1011983 L49.2451795,70.1011983 C48.4590942,70.1011983 47.8172097,69.4592974 47.8172097,68.6744682 L47.8172097,59.7682521 C47.8172097,58.984699 47.1727729,58.3415219 46.3866876,58.3415219 L43.9697306,58.3415219 C43.1874737,58.3415219 42.0160025,57.9701637 41.3766701,57.51458 L33.6893687,52.076926 C33.0474841,51.6251707 32.195041,50.6986894 31.7968939,50.0197802 L28.1995329,43.9134263 C27.8013859,43.2370695 26.8315404,42.6819464 26.0454551,42.6819464 L24.3265317,42.6819464 C23.5404464,42.6819464 22.6190932,42.1025765 22.2783712,41.3955922 L18.1105879,32.7637473 C17.7749703,32.0580391 17.4916734,30.8367683 17.4916734,30.0481107 L17.4916734,25.1272955 C17.4916734,24.3411901 16.8778633,23.8856064 16.126233,24.1165886 L14.4506974,24.6321512 C21.7041206,14.493179 33.1776476,7.58412986 46.2884269,6.47388369 L46.2884269,12.4092342 C46.2884269,13.1927872 46.8129092,14.2060464 47.4560698,14.6565256 L50.1320776,16.5388395 C50.7752383,16.9893187 51.9428812,17.3606769 52.7289665,17.3606769 L54.846037,17.3606769 C55.6333984,17.3606769 56.275283,17.8787917 56.275283,18.514312 C56.275283,19.1472799 55.8311958,20.1311877 55.2914003,20.7041768 L52.2402154,23.9200623 C51.6965915,24.4879468 51.8982173,24.956292 52.6855787,24.9575682 L54.720978,24.9626728 C55.5045111,24.9639489 56.1476717,25.607126 56.1476717,26.3945075 L56.1412912,31.5271627 C56.1387389,32.3119919 56.7818996,32.955169 57.5679849,32.955169 L59.8649873,32.955169 C60.6497965,32.955169 61.2942332,33.4426564 61.2942332,34.0411684 C61.2942332,34.6371282 60.6497965,35.1246156 59.8649873,35.1246156 L52.8208466,35.1246156 C52.0373135,35.1246156 50.8824318,35.5151159 50.2584128,35.991118 L47.3731225,38.1924682 C46.7491035,38.6684703 46.2361063,39.7008716 46.2361063,40.4869769 L46.2386586,49.023111 C46.2386586,49.8092163 45.596774,50.4523934 44.8106887,50.4523934 L44.4125416,50.4523934 C43.6277325,50.4523934 42.9845718,49.8092163 42.9845718,49.023111 L42.9845718,44.1086765 C42.9845718,43.3225712 42.3439634,42.6806702 41.556602,42.6806702 L37.7027424,42.6806702 C36.9204854,42.6806702 36.2747725,43.3225712 36.2696681,44.1086765 L36.2492503,48.0749352 C36.2441458,48.8610406 36.745658,49.9049272 37.3594681,50.3987953 L43.0458252,54.9610138 C43.6570831,55.4548819 44.8017559,55.8568676 45.5865651,55.8581437 L55.0846701,55.8632483 C55.8682031,55.8645244 57.0830622,56.1631424 57.7785434,56.5268437 L69.8799178,62.8514184 C70.5753991,63.2138436 71.1445453,64.1543625 71.1445453,64.9430201 L71.1445453,65.3756333 L71.1470975,65.3756333 L71.1470975,65.373081 Z M67.4782742,22.571177 C66.8453224,23.0369699 65.6840601,23.4185373 64.8992509,23.4185373 L64.2841647,23.4185373 C63.4993556,23.4185373 62.8561949,22.7753602 62.8561949,21.9892549 L62.8561949,17.3453631 C62.8561949,16.5592578 62.2155864,15.9173568 61.4282251,15.9173568 L59.3596468,15.9173568 C58.5748376,15.9173568 57.9316769,15.2741798 57.9316769,14.4893506 L57.9316769,7.04304437 C64.7678113,8.30387565 71.0603218,11.1445745 76.3880913,15.1950588 C76.203055,15.8076084 67.4782742,22.571177 67.4782742,22.571177 L67.4782742,22.571177 Z" id="Shape" sketch:type="MSShapeGroup"></path>
        </g>
    </g>
</svg>