<?xml version="1.0" encoding="UTF-8" standalone="no"?>
<svg width="100px" height="101px" viewBox="0 0 100 101" version="1.1" xmlns="http://www.w3.org/2000/svg" xmlns:xlink="http://www.w3.org/1999/xlink" xmlns:sketch="http://www.bohemiancoding.com/sketch/ns">
    <!-- Generator: Sketch 3.3.2 (12043) - http://www.bohemiancoding.com/sketch -->
    <title>int</title>
    <desc>Created with Sketch.</desc>
    <defs></defs>
    <g id="Page-1" stroke="none" stroke-width="1" fill="none" fill-rule="evenodd" sketch:type="MSPage">
        <g id="int" sketch:type="MSLayerGroup" fill="#9B9B9B">
            <g id="Page-1" sketch:type="MSShapeGroup">
                <path d="M91.8870429,36.6001358 C96.3564196,36.6001358 99.993856,33.012507 100,28.598923 C100,24.1817004 96.3588773,20.5855816 91.8870429,20.5855816 L82.1667322,20.5855816 L84.2865218,10.5297902 C84.7252261,8.43518739 84.3135568,6.29934748 83.1264746,4.50917162 C81.9369347,2.72020861 80.1157589,1.49764948 77.9935116,1.06102122 C77.4478962,0.950651304 76.891221,0.892434203 76.3357747,0.892434203 C72.5189245,0.892434203 69.1813311,3.57163372 68.3960873,7.26841965 L65.589363,20.5855816 L47.5570193,20.5916458 L49.6976996,10.4194203 C50.1425482,8.32481747 49.72965,6.18897756 48.5425678,4.39637599 C47.3542568,2.60983869 45.5293944,1.38242814 43.4096048,0.948225591 C42.8652182,0.834217101 42.3036276,0.776 41.7494101,0.776 C37.9288734,0.776 34.59128,3.45883808 33.8134094,7.1531983 L30.9833366,20.590433 L14.1454483,20.590433 C9.67607157,20.590433 6.03740661,24.1804876 6.03740661,28.5977101 C6.03740661,33.0088684 9.6785293,36.598923 14.1515926,36.598923 L27.6064196,36.598923 L22.1908179,62.3054118 L8.10804168,62.3054118 C3.63866496,62.3054118 0,65.8954663 0,70.3126889 C0,74.7238472 3.63989383,78.3151146 8.11295714,78.3151146 L18.8175875,78.3151146 L16.1349784,91.0246355 C15.2268482,95.3424039 18.0483189,99.5910394 22.4292175,100.493404 C22.973604,100.603774 23.5315081,100.661992 24.0857255,100.661992 C27.9062623,100.661992 31.2463134,97.9803663 32.024184,94.2872189 L35.3875836,78.3163275 L53.4248427,78.3163275 L50.7213429,91.1410697 C50.2826386,93.2332468 50.6918502,95.3715124 51.8789324,97.1580497 C53.0684723,98.9482256 54.8921058,100.171998 57.015582,100.607413 C57.5611974,100.720209 58.1166437,100.776 58.6696323,100.776 C62.4926268,100.776 65.8326779,98.0955876 66.6117774,94.4012274 L69.9985254,78.3163275 L85.8471785,78.3163275 C90.3177841,78.3163275 93.9552202,74.7274857 93.9601357,70.3139018 C93.9601357,65.8966792 90.3202418,62.3005603 85.8471785,62.3005603 L73.3754424,62.3005603 L78.7898152,36.6025616 L91.8870429,36.6025616 L91.8870429,36.6001358 L91.8870429,36.6001358 Z M62.2136748,36.6001358 L56.8017597,62.2981346 L38.7645006,62.3054118 L44.1801022,36.6001358 L62.2136748,36.6001358 L62.2136748,36.6001358 Z" id="int"></path>
            </g>
        </g>
    </g>
</svg>