<svg xmlns="http://www.w3.org/2000/svg" >
  
  <symbol id="datatype-number" viewBox="0 0 100 101">
        <path d="M91.8870429,36.6001358 C96.3564196,36.6001358 99.993856,33.012507 100,28.598923 C100,24.1817004 96.3588773,20.5855816 91.8870429,20.5855816 L82.1667322,20.5855816 L84.2865218,10.5297902 C84.7252261,8.43518739 84.3135568,6.29934748 83.1264746,4.50917162 C81.9369347,2.72020861 80.1157589,1.49764948 77.9935116,1.06102122 C77.4478962,0.950651304 76.891221,0.892434203 76.3357747,0.892434203 C72.5189245,0.892434203 69.1813311,3.57163372 68.3960873,7.26841965 L65.589363,20.5855816 L47.5570193,20.5916458 L49.6976996,10.4194203 C50.1425482,8.32481747 49.72965,6.18897756 48.5425678,4.39637599 C47.3542568,2.60983869 45.5293944,1.38242814 43.4096048,0.948225591 C42.8652182,0.834217101 42.3036276,0.776 41.7494101,0.776 C37.9288734,0.776 34.59128,3.45883808 33.8134094,7.1531983 L30.9833366,20.590433 L14.1454483,20.590433 C9.67607157,20.590433 6.03740661,24.1804876 6.03740661,28.5977101 C6.03740661,33.0088684 9.6785293,36.598923 14.1515926,36.598923 L27.6064196,36.598923 L22.1908179,62.3054118 L8.10804168,62.3054118 C3.63866496,62.3054118 0,65.8954663 0,70.3126889 C0,74.7238472 3.63989383,78.3151146 8.11295714,78.3151146 L18.8175875,78.3151146 L16.1349784,91.0246355 C15.2268482,95.3424039 18.0483189,99.5910394 22.4292175,100.493404 C22.973604,100.603774 23.5315081,100.661992 24.0857255,100.661992 C27.9062623,100.661992 31.2463134,97.9803663 32.024184,94.2872189 L35.3875836,78.3163275 L53.4248427,78.3163275 L50.7213429,91.1410697 C50.2826386,93.2332468 50.6918502,95.3715124 51.8789324,97.1580497 C53.0684723,98.9482256 54.8921058,100.171998 57.015582,100.607413 C57.5611974,100.720209 58.1166437,100.776 58.6696323,100.776 C62.4926268,100.776 65.8326779,98.0955876 66.6117774,94.4012274 L69.9985254,78.3163275 L85.8471785,78.3163275 C90.3177841,78.3163275 93.9552202,74.7274857 93.9601357,70.3139018 C93.9601357,65.8966792 90.3202418,62.3005603 85.8471785,62.3005603 L73.3754424,62.3005603 L78.7898152,36.6025616 L91.8870429,36.6025616 L91.8870429,36.6001358 L91.8870429,36.6001358 Z M62.2136748,36.6001358 L56.8017597,62.2981346 L38.7645006,62.3054118 L44.1801022,36.6001358 L62.2136748,36.6001358 L62.2136748,36.6001358 Z" ></path>
  
  </symbol>

  <symbol id="datatype-time" viewBox="0 0 100 100">
    <path d="M50,0 C22.385,0 0,22.385 0,50 C0,77.614 22.385,100 50,100 C77.615,100 100,77.614 100,50 C100,22.385 77.615,0 50,0 L50,0 Z M50,88.325 C28.833,88.325 11.675,71.166 11.675,50 C11.675,28.833 28.833,11.675 50,11.675 C71.166,11.675 88.324,28.833 88.324,50 C88.324,71.166 71.166,88.325 50,88.325 L50,88.325 Z" ></path>
            <path d="M70.996,53.399 L57.312,45.575 L57.312,24.467 C57.312,20.32 54.007,16.958 49.93,16.958 C45.853,16.958 42.548,20.32 42.548,24.467 L42.548,49.874 C42.548,53.13 44.59,55.894 47.438,56.935 L63.614,66.185 C67.206,68.259 71.769,67.078 73.808,63.546 C75.847,60.014 74.588,55.473 70.996,53.399 L70.996,53.399 Z" ></path>
  </symbol>

  <symbol id="datatype-text" viewBox="0 0 100 100">
         <path d="M92.5540061,0.129571578 C91.7659769,0.00417972832 90.9916923,0.00417972832 90.2311525,0.0626959248 C90.0066558,0.0501567398 89.7913222,0 89.5622439,0 L12.8347695,0 C12.6011096,0 12.3811945,0.0459770115 12.1566978,0.0626959248 C7.63469281,-0.221525601 3.49753932,2.6123302 2.69118382,6.78369906 L0.139251936,19.9414838 C-0.726663911,24.4054336 2.5354106,28.6645768 7.43310393,29.4545455 C7.95998394,29.5423197 8.48686396,29.584117 9.0091624,29.584117 C13.2975075,29.584117 17.0910436,26.7836991 17.8699097,22.7962382 L19.1069324,16.4137931 L40.6906866,16.4137931 L27.7065305,83.5820272 L17.2376537,83.5820272 C12.2620738,83.5820272 8.23487786,87.2560084 8.23487786,91.7951933 C8.23487786,96.3260188 12.2620738,100 17.2376537,100 L53.409112,100 C58.3801103,100 62.4073063,96.3260188 62.4073063,91.7951933 C62.4073063,87.2560084 58.3801103,83.5820272 53.409112,83.5820272 L45.9823946,83.5820272 L58.9619691,16.4137931 L80.2662479,16.4137931 L79.5835947,19.9373041 C78.7176788,24.4012539 81.9797533,28.6603971 86.8774467,29.4503657 C87.4043267,29.53814 87.9312067,29.5799373 88.4535051,29.5799373 C92.7418503,29.5799373 96.5353864,26.7795193 97.3142525,22.7920585 L99.8661844,9.63427377 C100.713774,5.17868339 97.4471179,0.91954023 92.5540061,0.129571578 L92.5540061,0.129571578 Z"></path>
  </symbol>

  <symbol id="datatype-bool" viewBox="0 0 100 100">
    <path d="M85.709593,45.5083333 L59.3319466,45.5083333 C51.7468502,45.5083333 45.5445545,51.7746054 45.5445545,59.4296927 L45.5445545,86.0711156 C45.5445545,93.7281563 51.7468502,99.992475 59.3319466,99.992475 L85.709593,99.992475 C93.2927554,99.992475 99.4950512,93.7281563 99.4950512,86.0711156 L99.4950512,59.4296927 C99.4950512,51.7746054 93.2908214,45.5083333 85.709593,45.5083333 L85.709593,45.5083333 Z M86.3187989,76.327922 L75.9526294,76.327922 L75.9526294,86.6903202 L69.0599004,86.6903202 L69.0599004,76.327922 L58.7208068,76.327922 L58.7208068,69.1748397 L69.0599004,69.1748397 L69.0599004,58.8163482 L75.9526294,58.8163482 L75.9526294,69.1748397 L86.3187989,69.1748397 L86.3187989,76.327922 L86.3187989,76.327922 Z" ></path>
    <path d="M40.1650386,0.00166666667 L13.7873921,0.00166666667 C6.20229578,0.00166666667 0,6.26793873 0,13.9249794 L0,40.564449 C0,48.2214896 6.20229578,54.4877617 13.7873921,54.4877617 L40.1650386,54.4877617 C47.7482009,54.4877617 53.9504967,48.2214896 53.9504967,40.564449 L53.9504967,13.9249794 C53.9504967,6.26793873 47.7462669,0.00166666667 40.1650386,0.00166666667 L40.1650386,0.00166666667 Z M38.7106805,31.0654212 L15.2398162,31.0654212 L15.2398162,23.4240072 L38.7106805,23.4240072 L38.7106805,31.0654212 L38.7106805,31.0654212 Z" ></path>
  </symbol>
  
  <symbol id="datatype-geo" viewBox="0 0 100 100" >
            <path d="M50.0006381,0 C22.3881168,0 0,22.3848598 0,49.9993619 C0,77.6164163 22.3881168,100 50.0006381,100 C77.6131593,100 100,77.6164163 100,49.9993619 C99.9987239,22.3835837 77.6118832,0 50.0006381,0 L50.0006381,0 Z M71.1470975,65.373081 C71.1470975,66.1591863 70.8714572,67.3855617 70.5345635,68.0938222 L66.8848819,75.7953574 C66.5467121,76.504894 65.8014624,77.5232577 65.2272118,78.0630671 L53.3402243,89.1604242 C52.768526,89.6964051 52.9420773,90.1379513 53.7256103,90.1379513 L55.0872223,90.1379513 C55.8707553,90.1379513 56.5151921,90.7007312 56.5151921,91.3885734 C56.5151921,92.0789679 55.8707553,92.643024 55.0872223,92.643024 L49.2451795,92.643024 C48.4590942,92.643024 47.8172097,91.9985707 47.8172097,91.2111892 L47.8172097,76.012302 C47.8172097,75.2223683 48.4590942,74.5830196 49.2451795,74.5830196 L50.8683945,74.5830196 C51.6544798,74.5830196 52.2976405,73.9398425 52.2976405,73.1550133 L52.2976405,71.5317569 C52.2976405,70.7443754 51.6544798,70.1011983 50.8683945,70.1011983 L49.2451795,70.1011983 C48.4590942,70.1011983 47.8172097,69.4592974 47.8172097,68.6744682 L47.8172097,59.7682521 C47.8172097,58.984699 47.1727729,58.3415219 46.3866876,58.3415219 L43.9697306,58.3415219 C43.1874737,58.3415219 42.0160025,57.9701637 41.3766701,57.51458 L33.6893687,52.076926 C33.0474841,51.6251707 32.195041,50.6986894 31.7968939,50.0197802 L28.1995329,43.9134263 C27.8013859,43.2370695 26.8315404,42.6819464 26.0454551,42.6819464 L24.3265317,42.6819464 C23.5404464,42.6819464 22.6190932,42.1025765 22.2783712,41.3955922 L18.1105879,32.7637473 C17.7749703,32.0580391 17.4916734,30.8367683 17.4916734,30.0481107 L17.4916734,25.1272955 C17.4916734,24.3411901 16.8778633,23.8856064 16.126233,24.1165886 L14.4506974,24.6321512 C21.7041206,14.493179 33.1776476,7.58412986 46.2884269,6.47388369 L46.2884269,12.4092342 C46.2884269,13.1927872 46.8129092,14.2060464 47.4560698,14.6565256 L50.1320776,16.5388395 C50.7752383,16.9893187 51.9428812,17.3606769 52.7289665,17.3606769 L54.846037,17.3606769 C55.6333984,17.3606769 56.275283,17.8787917 56.275283,18.514312 C56.275283,19.1472799 55.8311958,20.1311877 55.2914003,20.7041768 L52.2402154,23.9200623 C51.6965915,24.4879468 51.8982173,24.956292 52.6855787,24.9575682 L54.720978,24.9626728 C55.5045111,24.9639489 56.1476717,25.607126 56.1476717,26.3945075 L56.1412912,31.5271627 C56.1387389,32.3119919 56.7818996,32.955169 57.5679849,32.955169 L59.8649873,32.955169 C60.6497965,32.955169 61.2942332,33.4426564 61.2942332,34.0411684 C61.2942332,34.6371282 60.6497965,35.1246156 59.8649873,35.1246156 L52.8208466,35.1246156 C52.0373135,35.1246156 50.8824318,35.5151159 50.2584128,35.991118 L47.3731225,38.1924682 C46.7491035,38.6684703 46.2361063,39.7008716 46.2361063,40.4869769 L46.2386586,49.023111 C46.2386586,49.8092163 45.596774,50.4523934 44.8106887,50.4523934 L44.4125416,50.4523934 C43.6277325,50.4523934 42.9845718,49.8092163 42.9845718,49.023111 L42.9845718,44.1086765 C42.9845718,43.3225712 42.3439634,42.6806702 41.556602,42.6806702 L37.7027424,42.6806702 C36.9204854,42.6806702 36.2747725,43.3225712 36.2696681,44.1086765 L36.2492503,48.0749352 C36.2441458,48.8610406 36.745658,49.9049272 37.3594681,50.3987953 L43.0458252,54.9610138 C43.6570831,55.4548819 44.8017559,55.8568676 45.5865651,55.8581437 L55.0846701,55.8632483 C55.8682031,55.8645244 57.0830622,56.1631424 57.7785434,56.5268437 L69.8799178,62.8514184 C70.5753991,63.2138436 71.1445453,64.1543625 71.1445453,64.9430201 L71.1445453,65.3756333 L71.1470975,65.3756333 L71.1470975,65.373081 Z M67.4782742,22.571177 C66.8453224,23.0369699 65.6840601,23.4185373 64.8992509,23.4185373 L64.2841647,23.4185373 C63.4993556,23.4185373 62.8561949,22.7753602 62.8561949,21.9892549 L62.8561949,17.3453631 C62.8561949,16.5592578 62.2155864,15.9173568 61.4282251,15.9173568 L59.3596468,15.9173568 C58.5748376,15.9173568 57.9316769,15.2741798 57.9316769,14.4893506 L57.9316769,7.04304437 C64.7678113,8.30387565 71.0603218,11.1445745 76.3880913,15.1950588 C76.203055,15.8076084 67.4782742,22.571177 67.4782742,22.571177 L67.4782742,22.571177 Z" ></path>
  </symbol>
  
</svg>
