<?xml version="1.0" encoding="UTF-8" standalone="no"?>
<svg width="100px" height="100px" viewBox="0 0 100 100" version="1.1" xmlns="http://www.w3.org/2000/svg" xmlns:xlink="http://www.w3.org/1999/xlink" xmlns:sketch="http://www.bohemiancoding.com/sketch/ns">
    <!-- Generator: Sketch 3.3.2 (12043) - http://www.bohemiancoding.com/sketch -->
    <title>text</title>
    <desc>Created with Sketch.</desc>
    <defs></defs>
    <g id="Page-1" stroke="none" stroke-width="1" fill="none" fill-rule="evenodd" sketch:type="MSPage">
        <g id="text" sketch:type="MSLayerGroup" fill="#9B9B9B">
            <path d="M92.5540061,0.129571578 C91.7659769,0.00417972832 90.9916923,0.00417972832 90.2311525,0.0626959248 C90.0066558,0.0501567398 89.7913222,0 89.5622439,0 L12.8347695,0 C12.6011096,0 12.3811945,0.0459770115 12.1566978,0.0626959248 C7.63469281,-0.221525601 3.49753932,2.6123302 2.69118382,6.78369906 L0.139251936,19.9414838 C-0.726663911,24.4054336 2.5354106,28.6645768 7.43310393,29.4545455 C7.95998394,29.5423197 8.48686396,29.584117 9.0091624,29.584117 C13.2975075,29.584117 17.0910436,26.7836991 17.8699097,22.7962382 L19.1069324,16.4137931 L40.6906866,16.4137931 L27.7065305,83.5820272 L17.2376537,83.5820272 C12.2620738,83.5820272 8.23487786,87.2560084 8.23487786,91.7951933 C8.23487786,96.3260188 12.2620738,100 17.2376537,100 L53.409112,100 C58.3801103,100 62.4073063,96.3260188 62.4073063,91.7951933 C62.4073063,87.2560084 58.3801103,83.5820272 53.409112,83.5820272 L45.9823946,83.5820272 L58.9619691,16.4137931 L80.2662479,16.4137931 L79.5835947,19.9373041 C78.7176788,24.4012539 81.9797533,28.6603971 86.8774467,29.4503657 C87.4043267,29.53814 87.9312067,29.5799373 88.4535051,29.5799373 C92.7418503,29.5799373 96.5353864,26.7795193 97.3142525,22.7920585 L99.8661844,9.63427377 C100.713774,5.17868339 97.4471179,0.91954023 92.5540061,0.129571578 L92.5540061,0.129571578 Z" id="Shape" sketch:type="MSShapeGroup"></path>
        </g>
    </g>
</svg>