<?xml version="1.0" encoding="UTF-8" standalone="no"?>
<svg width="100px" height="100px" viewBox="0 0 100 100" version="1.1" xmlns="http://www.w3.org/2000/svg" xmlns:xlink="http://www.w3.org/1999/xlink" xmlns:sketch="http://www.bohemiancoding.com/sketch/ns">
    <!-- Generator: Sketch 3.3.2 (12043) - http://www.bohemiancoding.com/sketch -->
    <title>time</title>
    <desc>Created with Sketch.</desc>
    <defs></defs>
    <g id="Page-1" stroke="none" stroke-width="1" fill="none" fill-rule="evenodd" sketch:type="MSPage">
        <g id="time" sketch:type="MSLayerGroup" fill="#000000">
            <path d="M50,0 C22.385,0 0,22.385 0,50 C0,77.614 22.385,100 50,100 C77.615,100 100,77.614 100,50 C100,22.385 77.615,0 50,0 L50,0 Z M50,88.325 C28.833,88.325 11.675,71.166 11.675,50 C11.675,28.833 28.833,11.675 50,11.675 C71.166,11.675 88.324,28.833 88.324,50 C88.324,71.166 71.166,88.325 50,88.325 L50,88.325 Z" id="Shape" sketch:type="MSShapeGroup"></path>
            <path d="M70.996,53.399 L57.312,45.575 L57.312,24.467 C57.312,20.32 54.007,16.958 49.93,16.958 C45.853,16.958 42.548,20.32 42.548,24.467 L42.548,49.874 C42.548,53.13 44.59,55.894 47.438,56.935 L63.614,66.185 C67.206,68.259 71.769,67.078 73.808,63.546 C75.847,60.014 74.588,55.473 70.996,53.399 L70.996,53.399 Z" id="Shape" sketch:type="MSShapeGroup"></path>
        </g>
    </g>
</svg>